REM DISCID BE08990D
REM COMMENT "Morituri"
CATALOG 0652637280326
PERFORMER "THE BREEDERS"
TITLE "MOUNTAIN BATTLES"
FILE "data.wav" WAVE
  TRACK 01 AUDIO
    TITLE "OVERGLAZED"
    ISRC GBAFL0700213
    INDEX 01 00:00:00
  TRACK 02 AUDIO
    TITLE "BANG ON"
    ISRC GBAFL0700214
    INDEX 00 02:14:51
    INDEX 01 02:15:26
  TRACK 03 AUDIO
    TITLE "NIGHT OF JOY"
    ISRC GBAFL0700215
    INDEX 00 04:17:74
    INDEX 01 04:18:34
  TRACK 04 AUDIO
    TITLE "WE'RE GONNA RISE"
    ISRC GBAFL0700216
    INDEX 01 07:44:22
  TRACK 05 AUDIO
    TITLE "GERMAN STUDIES"
    ISRC GBAFL0700217
    INDEX 01 11:37:39
  TRACK 06 AUDIO
    TITLE "SPARK"
    ISRC GBAFL0700218
    INDEX 00 13:51:54
    INDEX 01 13:53:38
  TRACK 07 AUDIO
    TITLE "INSTANBUL"
    ISRC GBAFL0700219
    INDEX 00 16:31:20
    INDEX 01 16:32:49
  TRACK 08 AUDIO
    TITLE "WALK IT OFF"
    ISRC GBAFL0700220
    INDEX 01 19:30:19
  TRACK 09 AUDIO
    TITLE "REGLAME ESTA NOCHE"
    ISRC GBAFL0700221
    INDEX 00 22:14:69
    INDEX 01 22:16:27
  TRACK 10 AUDIO
    TITLE "HERE NO MORE"
    ISRC GBAFL0700222
    INDEX 00 25:06:18
    INDEX 01 25:08:01
  TRACK 11 AUDIO
    TITLE "NO WAY"
    ISRC GBAFL0700223
    INDEX 01 27:46:64
  TRACK 12 AUDIO
    TITLE "IT'S THE LOVE"
    ISRC GBAFL0700224
    INDEX 01 30:19:39
  TRACK 13 AUDIO
    TITLE "MOUNTAIN BATTLES"
    ISRC GBAFL0700225
    INDEX 01 32:47:56
